<?xml version="1.0" standalone="no"?><svg xmlns="http://www.w3.org/2000/svg" viewBox="0 0 1440 320"><path fill="#0099ff" fill-opacity="0.5" d="M0,32L40,69.3C80,107,160,181,240,229.3C320,277,400,299,480,282.7C560,267,640,213,720,181.3C800,149,880,139,960,149.3C1040,160,1120,192,1200,192C1280,192,1360,160,1400,144L1440,128L1440,320L1400,320C1360,320,1280,320,1200,320C1120,320,1040,320,960,320C880,320,800,320,720,320C640,320,560,320,480,320C400,320,320,320,240,320C160,320,80,320,40,320L0,320Z"></path></svg>