<?xml version="1.0" standalone="no"?><svg xmlns="http://www.w3.org/2000/svg" viewBox="0 0 1440 320">
	<path fill="#ffff" 
		fill-opacity="0.5" d="M0,96L40,112C80,128,160,160,240,160C320,160,400,128,480,144C560,160,640,224,720,240C800,256,880,224,960,192C1040,160,1120,128,1200,128C1280,128,1360,160,1400,176L1440,192L1440,320L1400,320C1360,320,1280,320,1200,320C1120,320,1040,320,960,320C880,320,800,320,720,320C640,320,560,320,480,320C400,320,320,320,240,320C160,320,80,320,40,320L0,320Z"></path></svg>